<svg id="Слой_1" data-name="Слой 1" xmlns="http://www.w3.org/2000/svg" viewBox="0 0 19.5 21.66"><defs><style>.cls-1{fill:#333232;}</style></defs><title>nalichie</title><path class="cls-1" d="M25.75,11.19h0a2.71,2.71,0,0,0-1-1l-7-4a2.76,2.76,0,0,0-2.75,0l-7,4a2.74,2.74,0,0,0-1,1H7v0a2.75,2.75,0,0,0-.36,1.35v8.09A2.76,2.76,0,0,0,8,23l7,4a2.67,2.67,0,0,0,1.34.36h.06a2.73,2.73,0,0,0,1.35-.36l7-4a2.77,2.77,0,0,0,1.37-2.38V12.55A2.7,2.7,0,0,0,25.75,11.19Zm-10-3.76a1.23,1.23,0,0,1,.62-.17,1.29,1.29,0,0,1,.63.17l6.87,4-3,1.73L13.37,8.8Zm.62,8.3L8.87,11.4l3-1.73L19.37,14Zm-7.62,6a1.25,1.25,0,0,1-.63-1.08V12.7L15.62,17v8.66Zm15.25,0-6.88,4V17l3-1.73v2.16a.75.75,0,0,0,1.5,0v-3l3-1.74v7.94A1.26,1.26,0,0,1,24,21.72Z" transform="translate(-6.62 -5.77)"/><path class="cls-1" d="M13.79,21l-3-1.76a.75.75,0,1,0-.75,1.3l3,1.76a.86.86,0,0,0,.37.1.76.76,0,0,0,.65-.38A.74.74,0,0,0,13.79,21Z" transform="translate(-6.62 -5.77)"/></svg>