<svg id="Слой_1" data-name="Слой 1" xmlns="http://www.w3.org/2000/svg" viewBox="0 0 151.71 27.83"><defs><style>.cls-1{fill:#1b1918;fill-rule:evenodd;}.cls-2{fill:none;stroke:#1b1918;stroke-width:0.22px;}</style></defs><title>logo</title><path class="cls-1" d="M170,89h-7.37L172,75l-9.61-13.7h5.93l3.72,5,2.6,3.73a4.28,4.28,0,0,1,.35.49c1.14-1.82,2.12-3.31,2.91-4.48l3.35-4.79h7.22l-9.71,14.51L188.21,89h-6.4l-2.93-4c-1.53-2.13-2.56-3.65-3.11-4.58a41.83,41.83,0,0,1-2.84,4.45Zm0,0" transform="translate(-37 -61.24)"/><path class="cls-2" d="M170,89h-7.37L172,75l-9.61-13.7h5.93l3.72,5,2.6,3.73a4.28,4.28,0,0,1,.35.49c1.14-1.82,2.12-3.31,2.91-4.48l3.35-4.79h7.22l-9.71,14.51L188.21,89h-6.4l-2.93-4c-1.53-2.13-2.56-3.65-3.11-4.58a41.83,41.83,0,0,1-2.84,4.45Zm0,0" transform="translate(-37 -61.24)"/><path class="cls-1" d="M129.7,89l.1-27.62h20.44V66H135.45l-.07,6.25h14.33l0,4.63H135.32l-.09,7.48h16V89Zm0,0" transform="translate(-37 -61.24)"/><path class="cls-2" d="M129.7,89l.1-27.62h20.44V66H135.45l-.07,6.25h14.33l0,4.63H135.32l-.09,7.48h16V89Zm0,0" transform="translate(-37 -61.24)"/><path class="cls-1" d="M108.1,89h-5.4L97.19,65.89,97.3,89H92.17l.41-27.62h8.1l4.55,19,5-19h8.18L118.73,89h-5.15l.34-22.91Zm0,0" transform="translate(-37 -61.24)"/><path class="cls-2" d="M108.1,89h-5.4L97.19,65.89,97.3,89H92.17l.41-27.62h8.1l4.55,19,5-19h8.18L118.73,89h-5.15l.34-22.91Zm0,0" transform="translate(-37 -61.24)"/><polygon class="cls-1" points="38.17 27.73 38.26 0.11 43.93 0.11 43.84 27.73 38.17 27.73"/><path class="cls-2" d="M75.17,89l.09-27.62h5.67L80.84,89Zm0,0" transform="translate(-37 -61.24)"/><path class="cls-1" d="M37.21,89l-.1-27.62h5.67l0,11.74L53.08,61.34h7.59L50.62,72.18,63.28,89H56.84L47.25,75.81l-4.4,4.73,0,8.42Zm0,0" transform="translate(-37 -61.24)"/><path class="cls-2" d="M37.21,89l-.1-27.62h5.67l0,11.74L53.08,61.34h7.59L50.62,72.18,63.28,89H56.84L47.25,75.81l-4.4,4.73,0,8.42Zm0,0" transform="translate(-37 -61.24)"/></svg>