<svg id="Слой_1" data-name="Слой 1" xmlns="http://www.w3.org/2000/svg" viewBox="0 0 11.89 15">
	<defs>
		<style>
			.cls-1{fill:#333232;}
		</style>
	</defs>
	<title>
		pin
	</title>
	<path class="cls-1" d="M16,11.61a2.84,2.84,0,1,0,2.83,2.83A2.83,2.83,0,0,0,16,11.61Zm0,4.67a1.84,1.84,0,1,1,1.83-1.84A1.83,1.83,0,0,1,16,16.28Z" transform="translate(-10.06 -8.5)" />
	<path class="cls-1" d="M16,8.5a6,6,0,0,0-5.94,5.94c0,4.27,5.39,8.76,5.62,9l.08,0,.05,0a.47.47,0,0,0,.38,0l0,0,.08,0c.23-.19,5.62-4.68,5.62-9A6,6,0,0,0,16,8.5Zm0,13.84c-1.13-1-4.94-4.64-4.94-7.9a4.94,4.94,0,0,1,9.88,0C20.94,17.7,17.13,21.33,16,22.34Z" transform="translate(-10.06 -8.5)" />
</svg>
