<svg id="Capa_1" enable-background="new 0 0 512 512" height="512" viewBox="0 0 512 512" width="512" xmlns="http://www.w3.org/2000/svg"><g><path d="m441.477 59.021h-125.507v-44.021c0-8.284-6.716-15-15-15h-89.94c-8.284 0-15 6.716-15 15v44.021h-125.507c-8.284 0-15 6.716-15 15v60.222c0 8.284 6.716 15 15 15h4.138l28.001 348.957c.625 7.794 7.133 13.8 14.952 13.8h276.772c7.819 0 14.327-6.006 14.952-13.8l28.001-348.957h4.138c8.284 0 15-6.716 15-15v-60.222c0-8.284-6.716-15-15-15zm-215.447-29.021h59.939v29.021h-59.939zm-140.507 59.021h340.954v30.222h-336.735c-.801-.067-1.614-.088-2.442-.023-.061.005-.118.018-.178.023h-1.598v-30.222zm295.019 392.979h-249.084l-26.701-332.757h302.485z"/><path d="m316 452c8.284 0 15-6.716 15-15v-243.757c0-8.284-6.716-15-15-15s-15 6.716-15 15v243.757c0 8.284 6.716 15 15 15z"/><path d="m196 452c8.284 0 15-6.716 15-15v-243.757c0-8.284-6.716-15-15-15s-15 6.716-15 15v243.757c0 8.284 6.716 15 15 15z"/><path d="m256 452c8.284 0 15-6.716 15-15v-243.757c0-8.284-6.716-15-15-15s-15 6.716-15 15v243.757c0 8.284 6.716 15 15 15z"/></g></svg>