<svg id="Слой_1" data-name="Слой 1" xmlns="http://www.w3.org/2000/svg" viewBox="0 0 19.5 20.5"><defs><style>.cls-1{fill:#333232;}</style></defs><title>calendar</title><path class="cls-1" d="M23,7.75H20.75V6.5a.75.75,0,0,0-1.5,0V7.75h-6.5V6.5a.75.75,0,0,0-1.5,0V7.75H9A2.75,2.75,0,0,0,6.25,10.5v13A2.75,2.75,0,0,0,9,26.25H23a2.75,2.75,0,0,0,2.75-2.75v-13A2.75,2.75,0,0,0,23,7.75Zm-9.25,11v-4.5h4.5v4.5Zm4.5,1.5v4.5h-4.5v-4.5Zm-10.5-6h4.5v4.5H7.75Zm12,0h4.5v4.5h-4.5ZM9,9.25h2.25V10.5a.75.75,0,0,0,1.5,0V9.25h6.5V10.5a.75.75,0,0,0,1.5,0V9.25H23a1.25,1.25,0,0,1,1.25,1.25v2.25H7.75V10.5A1.25,1.25,0,0,1,9,9.25ZM7.75,23.5V20.25h4.5v4.5H9A1.25,1.25,0,0,1,7.75,23.5ZM23,24.75H19.75v-4.5h4.5V23.5A1.25,1.25,0,0,1,23,24.75Z" transform="translate(-6.25 -5.75)"/></svg>