<svg id="Слой_1" data-name="Слой 1" xmlns="http://www.w3.org/2000/svg" viewBox="0 0 19.5 19.68">
	<defs>
		<style>
			.cls-1{fill:#333232;}
		</style>
	</defs>
	<title>
		cart
	</title>
	<path class="cls-1" d="M37.41,9.22H34.16V7.16a2.75,2.75,0,0,0-2.75-2.75h-4a2.75,2.75,0,0,0-2.75,2.75V9.22H21.41A1.76,1.76,0,0,0,19.66,11V18.5a5.6,5.6,0,0,0,5.59,5.59h8.33a5.59,5.59,0,0,0,5.58-5.59V11A1.75,1.75,0,0,0,37.41,9.22ZM26.16,7.16a1.25,1.25,0,0,1,1.25-1.25h4a1.25,1.25,0,0,1,1.25,1.25V9.22h-6.5ZM37.66,18.5a4.09,4.09,0,0,1-4.08,4.09H25.25a4.09,4.09,0,0,1-4.09-4.09V11a.26.26,0,0,1,.25-.25h3.25v2.44a.75.75,0,0,0,1.5,0V10.72h6.5v2.44a.75.75,0,0,0,1.5,0V10.72h3.25a.25.25,0,0,1,.25.25Z" transform="translate(-19.66 -4.41)" />
</svg>
