<svg xmlns="http://www.w3.org/2000/svg" viewBox="0 0 88 33"><defs><style>.cls-1{isolation:isolate;}.cls-2{fill:#c53c32;}</style></defs><title>denisov</title><g id="Слой_1" data-name="Слой 1"><g id="РЎР_РѕР__1" data-name="РЎР»РѕР№_1" class="cls-1"><g id="_460947947792" data-name=" 460947947792"><path class="cls-2" d="M11.71,11.33h1.51c2.52,0,6,.57,6,5.15,0,4.4-3.39,5.25-6,5.25H11.71a.29.29,0,0,1-.31-.25V11.6A.29.29,0,0,1,11.71,11.33Zm1.91,8.34h0A3,3,0,0,0,17,16.48c0-2.18-1.42-3.15-3.37-3.12Zm8.7-8.34h6.52c.19,0,.32.11.32.25V13.3a.3.3,0,0,1-.32.25H24.27V15.4h3.57c.2,0,.3.12.3.25v1.73c0,.13-.1.25-.3.25H24.27v1.86h4.59a.3.3,0,0,1,.33.25v1.73a.31.31,0,0,1-.33.25H22.32a.28.28,0,0,1-.3-.25V11.58A.27.27,0,0,1,22.32,11.33Zm10.43,0h1.67a.37.37,0,0,1,.25.09l4.15,6.25V11.56a.28.28,0,0,1,.3-.25h1.61a.28.28,0,0,1,.31.25V21.5a.29.29,0,0,1-.31.26H39.2a.43.43,0,0,1-.27-.11l-4.21-6.14v6a.31.31,0,0,1-.31.26H32.75a.27.27,0,0,1-.29-.26V11.56A.25.25,0,0,1,32.75,11.31Zm11.88,0h1.63a.27.27,0,0,1,.3.25v9.92a.27.27,0,0,1-.3.25H44.63a.29.29,0,0,1-.31-.25V11.56A.28.28,0,0,1,44.63,11.31Zm8.51,6.19h0a4,4,0,0,1-1.57-.34,3,3,0,0,1-1.74-2.77,3.11,3.11,0,0,1,3.31-3.09c1.81,0,3.25,1,3.27,2.83a.28.28,0,0,1-.31.25H54.52a.3.3,0,0,1-.32-.25c0-.6-.51-.83-1.06-.83a1,1,0,0,0-1.09,1.09,1.24,1.24,0,0,0,1.09,1.26,3.94,3.94,0,0,1,1.55.34,3,3,0,0,1-1.55,5.76c-1.83-.05-3.28-.89-3.31-2.84,0-.15.12-.24.31-.24h1.61c.14,0,.3.09.3.24,0,.63.52.85,1.09.85a1,1,0,0,0,1-1A1.36,1.36,0,0,0,53.14,17.5Zm10.21-6.19h0A3.67,3.67,0,0,1,67,14.94a3.68,3.68,0,0,1-7.36,0A3.68,3.68,0,0,1,63.35,11.31Zm0,5.23h0a1.55,1.55,0,0,0,1.56-1.6,1.66,1.66,0,0,0-1.56-1.72,1.68,1.68,0,0,0-1.59,1.72A1.57,1.57,0,0,0,63.35,16.54Zm-2.76,3h5.49a.3.3,0,0,1,.32.26V21.5a.3.3,0,0,1-.32.26H60.59a.29.29,0,0,1-.31-.26V19.76A.29.29,0,0,1,60.59,19.5Zm8.75-8.19h1.72a.32.32,0,0,1,.29.16c.64,1.81,1.19,3.27,1.82,5.08.6-1.68,1.19-3.38,1.79-5.08a.3.3,0,0,1,.28-.16H77c.24,0,.35.16.28.35l-3.79,10a.35.35,0,0,1-.56,0l-3.81-10C69,11.48,69.12,11.31,69.34,11.31Z"/></g></g></g><g id="Слой_2" data-name="Слой 2"><path class="cls-2" d="M85,0H0V33H88V0Zm1,31H2V2H86Z"/></g></svg>