<svg id="Слой_1" data-name="Слой 1" xmlns="http://www.w3.org/2000/svg" viewBox="0 0 19.5 17.09"><defs><style>.cls-1{fill:#333232;}</style></defs><title>dislike</title><path class="cls-1" d="M20.6,3.57H18.52A1.76,1.76,0,0,0,16.8,5l-.53-.57a2.75,2.75,0,0,0-2-.88H7.15a2.77,2.77,0,0,0-2.64,2L3,10.91a2.77,2.77,0,0,0,.36,2.29l.39.57A2.74,2.74,0,0,0,6,15H8.75v2.93a2.75,2.75,0,0,0,.63,1.76,2.68,2.68,0,0,0,2.08,1h0a2.71,2.71,0,0,0,2.1-1.06l3.68-4.8a1.76,1.76,0,0,0,1.23.5H20.6a1.76,1.76,0,0,0,1.77-1.76V5.34A1.77,1.77,0,0,0,20.6,3.57ZM12.42,18.7a1.23,1.23,0,0,1-.93.47,1.21,1.21,0,0,1-1-.44,1.28,1.28,0,0,1-.29-.81V14.24a.76.76,0,0,0-.75-.75H6a1.26,1.26,0,0,1-1-.55l-.38-.58a1.2,1.2,0,0,1-.16-1L6,6a1.27,1.27,0,0,1,1.2-.91h7.11a1.24,1.24,0,0,1,.91.4l1.6,1.72V13Zm8.45-5.15a.26.26,0,0,1-.27.26H18.52a.25.25,0,0,1-.25-.25V5.32a.25.25,0,0,1,.25-.25H20.6a.27.27,0,0,1,.27.27Z" transform="translate(-2.87 -3.57)"/></svg>