<svg id="Слой_1" data-name="Слой 1" xmlns="http://www.w3.org/2000/svg" viewBox="0 0 19.5 19.5"><defs><style>.cls-1{fill:#333232;}</style></defs><title>vhod_reg</title><path class="cls-1" d="M16,6.25A9.74,9.74,0,0,0,9.88,23.58a8,8,0,0,0,1.18.82,9.73,9.73,0,0,0,9.87,0,10.91,10.91,0,0,0,1.19-.82A9.75,9.75,0,0,0,16,6.25Zm0,18A8.2,8.2,0,0,1,11.56,23c.57-1.26,2.37-2.2,4.44-2.2s3.86.94,4.44,2.2A8.2,8.2,0,0,1,16,24.25ZM21.63,22A6.46,6.46,0,0,0,16,19.25,6.47,6.47,0,0,0,10.36,22a8.26,8.26,0,1,1,11.27,0Z" transform="translate(-6.25 -6.25)"/><path class="cls-1" d="M16,10.25A3.75,3.75,0,1,0,19.75,14,3.75,3.75,0,0,0,16,10.25Zm0,6A2.25,2.25,0,1,1,18.25,14,2.25,2.25,0,0,1,16,16.25Z" transform="translate(-6.25 -6.25)"/></svg>