<svg id="Слой_1" data-name="Слой 1" xmlns="http://www.w3.org/2000/svg" viewBox="0 0 19.5 17.09"><defs><style>.cls-1{fill:#333232;}</style></defs><title>like</title><path class="cls-1" d="M21.9,11l-.38-.57a2.76,2.76,0,0,0-2.29-1.22H16.49V6.32a2.81,2.81,0,0,0-.63-1.76,2.65,2.65,0,0,0-2.14-1,2.69,2.69,0,0,0-2.09,1.06L7.94,9.43a1.76,1.76,0,0,0-1.23-.51H4.63a1.77,1.77,0,0,0-1.76,1.77V18.9a1.77,1.77,0,0,0,1.76,1.77H6.71a1.75,1.75,0,0,0,1.72-1.45l.53.57a2.79,2.79,0,0,0,2,.88h7.1a2.75,2.75,0,0,0,2.64-2l1.54-5.34A2.7,2.7,0,0,0,21.9,11ZM7,18.92a.25.25,0,0,1-.25.25H4.63a.27.27,0,0,1-.26-.27V10.69a.27.27,0,0,1,.26-.27H6.71a.25.25,0,0,1,.25.25Zm13.86-6-1.54,5.34a1.26,1.26,0,0,1-1.2.91H11a1.28,1.28,0,0,1-.92-.4l-1.6-1.72V11.21l4.36-5.67a1.2,1.2,0,0,1,.93-.47h0a1.2,1.2,0,0,1,.93.44,1.31,1.31,0,0,1,.29.81V10a.75.75,0,0,0,.75.75h3.49a1.26,1.26,0,0,1,1,.55l.39.58A1.26,1.26,0,0,1,20.82,12.92Z" transform="translate(-2.87 -3.57)"/></svg>