<svg id="Слой_1" data-name="Слой 1" xmlns="http://www.w3.org/2000/svg" viewBox="0 0 19.5 15.5"><defs><style>.cls-1{fill:#333232;}</style></defs><title>pass_off</title><path class="cls-1" d="M26.16,15.33a16.53,16.53,0,0,0-1.89-2.74.75.75,0,0,0-1.06-.08.74.74,0,0,0-.08,1.05,14.51,14.51,0,0,1,1.71,2.49.22.22,0,0,1,0,.22h0c-2,3.61-5.34,6.14-8.22,6.14A6.17,6.17,0,0,1,14.38,22a.75.75,0,0,0-.54,1.4,7.77,7.77,0,0,0,2.78.55c4,0,7.67-3.48,9.54-6.93h0A1.71,1.71,0,0,0,26.16,15.33Z" transform="translate(-6.87 -8.41)"/><path class="cls-1" d="M24.15,8.63a.74.74,0,0,0-1.06,0l-1.51,1.5a8.78,8.78,0,0,0-5-1.72c-4,0-7.68,3.48-9.54,6.92a1.73,1.73,0,0,0,0,1.65,15.55,15.55,0,0,0,3.39,4.26L9.09,22.63a.74.74,0,0,0,0,1.06.75.75,0,0,0,.53.22.79.79,0,0,0,.53-.22l14-14A.75.75,0,0,0,24.15,8.63ZM8.39,16.27a.28.28,0,0,1,0-.22c2-3.62,5.34-6.14,8.23-6.14a7.19,7.19,0,0,1,3.88,1.3l-1.71,1.72a4,4,0,0,0-4.93.47,3.9,3.9,0,0,0-.48,4.93l-1.84,1.85A14.19,14.19,0,0,1,8.39,16.27Zm6.09,1a2.4,2.4,0,0,1,.44-2.77A2.46,2.46,0,0,1,17.68,14Z" transform="translate(-6.87 -8.41)"/></svg>