<svg id="Слой_1" data-name="Слой 1" xmlns="http://www.w3.org/2000/svg" viewBox="0 0 15 15"><defs><style>.cls-1{fill:#333232;}</style></defs><title>phone</title><path class="cls-1" d="M34.47,16.62a1.7,1.7,0,0,0-2.35,0l-.77.73a9.38,9.38,0,0,1-2.83-2,8.41,8.41,0,0,1-1.92-2.88l.64-.64a1.84,1.84,0,0,0,.55-1.27,1.59,1.59,0,0,0-.48-1.15l-.91-.92a2.06,2.06,0,0,0-2.91,0l-.5.51a3,3,0,0,0-.8,2.67,12.64,12.64,0,0,0,3.6,6.42,12.73,12.73,0,0,0,6.41,3.6,3.9,3.9,0,0,0,.58.05,3,3,0,0,0,2.1-.85l.5-.51a2.05,2.05,0,0,0,0-2.9Zm.2,3.11-.5.5a2,2,0,0,1-1.78.52,11.6,11.6,0,0,1-5.89-3.32,11.69,11.69,0,0,1-3.33-5.89,2,2,0,0,1,.52-1.78l.51-.51a1.07,1.07,0,0,1,.74-.31,1.1,1.1,0,0,1,.75.31l.91.91a.65.65,0,0,1,.19.45.79.79,0,0,1-.26.56l-.64.64A1.08,1.08,0,0,0,25.66,13a10.61,10.61,0,0,0,5.28,5.28A1.06,1.06,0,0,0,32.11,18l.71-.71a.68.68,0,0,1,.94,0l.91.91A1.06,1.06,0,0,1,34.67,19.73Z" transform="translate(-22.13 -6.79)"/><path class="cls-1" d="M30.44,10.92A2.56,2.56,0,0,1,33,13.52a.5.5,0,0,0,.49.51h0a.51.51,0,0,0,.5-.49,3.55,3.55,0,0,0-3.62-3.62.49.49,0,0,0-.49.5.5.5,0,0,0,.5.5Z" transform="translate(-22.13 -6.79)"/><path class="cls-1" d="M35.16,8.76a6.69,6.69,0,0,0-4.76-2,.5.5,0,0,0,0,1,5.74,5.74,0,0,1,5.73,5.74.51.51,0,0,0,.5.5.5.5,0,0,0,.5-.5A6.73,6.73,0,0,0,35.16,8.76Z" transform="translate(-22.13 -6.79)"/></svg>