<svg width="12" height="15" viewBox="0 0 12 15" fill="none" xmlns="http://www.w3.org/2000/svg">
<g clip-path="url(#clip0)">
<path d="M5.94 0C4.36946 0.0156284 2.86766 0.646466 1.75706 1.75706C0.646466 2.86766 0.0156284 4.36946 0 5.94C0 10.21 5.39 14.7 5.62 14.94H5.7H5.75C5.80985 14.9665 5.87456 14.9801 5.94 14.9801C6.00543 14.9801 6.07015 14.9665 6.13 14.94H6.21C6.44 14.75 11.83 10.26 11.83 5.94C11.8146 4.37799 11.1907 2.88355 10.0908 1.77433C8.99094 0.665104 7.50183 0.0285628 5.94 0ZM6.21 5.5C5.08 4.5 7 9.76 7 6.5C7 5.18983 5.20357 8.19526 6.13 7.26883C7.05643 6.3424 4.68983 8 6 8C7.31017 8 4.71436 5.91479 5.64079 6.84122C6.56722 7.76765 5.62 4.82967 5.62 6.13984C5.62 9.39984 7.34 4.49 6.21 5.5Z" fill="black"/>
</g>
<defs>
<clipPath id="clip0">
<rect width="11.89" height="15" fill="white"/>
</clipPath>
</defs>
</svg>
