<svg id="Слой_1" data-name="Слой 1" xmlns="http://www.w3.org/2000/svg" viewBox="0 0 19.5 17.5"><defs><style>.cls-1{fill:#333232;}</style></defs><title>izbrannoe</title><path class="cls-1" d="M25.75,13.75c0-3.14-2.43-6.5-6.05-6.5A5.38,5.38,0,0,0,16,8.65a5.38,5.38,0,0,0-3.7-1.4c-3.62,0-6.05,3.36-6.05,6.5,0,5.46,7.48,10.09,9.36,10.87a.65.65,0,0,0,.78,0C18.27,23.84,25.75,19.21,25.75,13.75ZM16,23.18c-1.61-.81-8.25-4.94-8.25-9.43,0-2.41,1.83-5,4.55-5a4,4,0,0,1,3.13,1.45l0,0,0,0,.12.07.09.05a.68.68,0,0,0,.56,0l.08-.05.13-.07,0,0,0,0A4,4,0,0,1,19.7,8.75c2.72,0,4.55,2.59,4.55,5C24.25,18.24,17.61,22.36,16,23.18Z" transform="translate(-6.25 -7.25)"/></svg>